<svg width="132" height="66" viewBox="0 0 132 66" fill="none" xmlns="http://www.w3.org/2000/svg">
<circle cx="99" cy="33" r="29.5" stroke="#F2FA00" stroke-width="7"/>
<path d="M10.5253 54V46.74H31.7053V54H10.5253ZM10.5253 19.26V12H31.7053V19.26H10.5253ZM10.5253 35.28V28.14H30.5053V35.28H10.5253ZM5.00531 12H13.2853V54H5.00531V12ZM43.8216 39.9C44.7016 41.46 45.6616 42.82 46.7016 43.98C47.7816 45.14 48.9616 46.04 50.2416 46.68C51.5216 47.32 52.9016 47.64 54.3816 47.64C56.1016 47.64 57.5016 47.2 58.5816 46.32C59.6616 45.44 60.2016 44.24 60.2016 42.72C60.2016 41.4 59.8616 40.34 59.1816 39.54C58.5416 38.74 57.5616 38.04 56.2416 37.44C54.9616 36.8 53.3816 36.12 51.5016 35.4C50.5016 35.04 49.3416 34.56 48.0216 33.96C46.7416 33.32 45.5216 32.52 44.3616 31.56C43.2016 30.56 42.2416 29.36 41.4816 27.96C40.7216 26.52 40.3416 24.8 40.3416 22.8C40.3416 20.4 40.9416 18.34 42.1416 16.62C43.3816 14.86 45.0416 13.52 47.1216 12.6C49.2416 11.64 51.6016 11.16 54.2016 11.16C56.8816 11.16 59.1816 11.62 61.1016 12.54C63.0616 13.42 64.6816 14.56 65.9616 15.96C67.2816 17.32 68.3016 18.74 69.0216 20.22L62.3016 23.94C61.7416 22.94 61.0616 22.04 60.2616 21.24C59.5016 20.4 58.6216 19.74 57.6216 19.26C56.6216 18.74 55.4816 18.48 54.2016 18.48C52.5216 18.48 51.2616 18.88 50.4216 19.68C49.5816 20.44 49.1616 21.34 49.1616 22.38C49.1616 23.42 49.5016 24.34 50.1816 25.14C50.8616 25.9 51.9016 26.64 53.3016 27.36C54.7016 28.04 56.4616 28.74 58.5816 29.46C59.9416 29.94 61.2416 30.54 62.4816 31.26C63.7616 31.98 64.9016 32.86 65.9016 33.9C66.9416 34.9 67.7416 36.1 68.3016 37.5C68.9016 38.86 69.2016 40.44 69.2016 42.24C69.2016 44.28 68.8016 46.1 68.0016 47.7C67.2016 49.3 66.1016 50.66 64.7016 51.78C63.3016 52.86 61.7216 53.68 59.9616 54.24C58.2416 54.84 56.4216 55.14 54.5016 55.14C51.9416 55.14 49.5416 54.66 47.3016 53.7C45.1016 52.7 43.1816 51.36 41.5416 49.68C39.9016 48 38.6216 46.18 37.7016 44.22L43.8216 39.9ZM76.1967 12H84.7767V54H76.1967V12ZM81.4167 19.26V12H89.7567C93.0767 12 95.8967 12.54 98.2167 13.62C100.577 14.7 102.377 16.24 103.617 18.24C104.857 20.24 105.477 22.62 105.477 25.38C105.477 28.1 104.857 30.48 103.617 32.52C102.377 34.52 100.577 36.06 98.2167 37.14C95.8967 38.22 93.0767 38.76 89.7567 38.76H81.4167V31.5H89.7567C92.0367 31.5 93.8367 30.98 95.1567 29.94C96.4767 28.9 97.1367 27.38 97.1367 25.38C97.1367 23.34 96.4767 21.82 95.1567 20.82C93.8367 19.78 92.0367 19.26 89.7567 19.26H81.4167Z" fill="#0015FF"/>
</svg>
