<svg width="632" height="99" viewBox="0 0 632 99" fill="none" xmlns="http://www.w3.org/2000/svg">
<path d="M90.25 94H72.375V30C72.375 28.75 72.125 27.5833 71.625 26.5C71.1667 25.4167 70.5208 24.4792 69.6875 23.6875C68.8958 22.8542 67.9583 22.2083 66.875 21.75C65.7917 21.2917 64.625 21.0625 63.375 21.0625C62.125 21.0625 60.9583 21.2917 59.875 21.75C58.7917 22.2083 57.8333 22.8542 57 23.6875C56.2083 24.4792 55.5833 25.4167 55.125 26.5C54.6667 27.5833 54.4375 28.75 54.4375 30V94H36.5V30C36.5 28.75 36.2708 27.5833 35.8125 26.5C35.3542 25.4167 34.7083 24.4792 33.875 23.6875C33.0833 22.8542 32.1458 22.2083 31.0625 21.75C29.9792 21.2917 28.8125 21.0625 27.5625 21.0625C26.3125 21.0625 25.1458 21.2917 24.0625 21.75C22.9792 22.2083 22.0208 22.8542 21.1875 23.6875C20.3958 24.4792 19.7708 25.4167 19.3125 26.5C18.8542 27.5833 18.625 28.75 18.625 30V94H0.6875V30C0.6875 26.2917 1.375 22.8125 2.75 19.5625C4.16667 16.2708 6.08333 13.4167 8.5 11C10.9583 8.54167 13.8125 6.625 17.0625 5.25C20.3542 3.83333 23.8542 3.125 27.5625 3.125C30.8958 3.125 34.1042 3.72917 37.1875 4.9375C40.2708 6.10417 43.0417 7.8125 45.5 10.0625C47.9583 7.8125 50.7083 6.10417 53.75 4.9375C56.8333 3.72917 60.0417 3.125 63.375 3.125C67.0833 3.125 70.5625 3.83333 73.8125 5.25C77.1042 6.625 79.9583 8.54167 82.375 11C84.8333 13.4167 86.75 16.2708 88.125 19.5625C89.5417 22.8125 90.25 26.2917 90.25 30V94ZM168.438 59.9375C168.438 64.9375 167.542 69.6042 165.75 73.9375C163.958 78.2292 161.521 81.9583 158.438 85.125C155.354 88.25 151.729 90.7292 147.562 92.5625C143.438 94.3542 139 95.25 134.25 95.25C129.542 95.25 125.104 94.3542 120.938 92.5625C116.812 90.7292 113.188 88.25 110.062 85.125C106.979 81.9583 104.542 78.2292 102.75 73.9375C100.958 69.6042 100.062 64.9375 100.062 59.9375C100.062 54.8542 100.958 50.1458 102.75 45.8125C104.542 41.4792 106.979 37.75 110.062 34.625C113.188 31.4583 116.812 28.9792 120.938 27.1875C125.104 25.3958 129.542 24.5 134.25 24.5C139 24.5 143.438 25.3542 147.562 27.0625C151.729 28.7292 155.354 31.125 158.438 34.25C161.521 37.3333 163.958 41.0625 165.75 45.4375C167.542 49.7708 168.438 54.6042 168.438 59.9375ZM151.25 59.9375C151.25 57.1875 150.792 54.7083 149.875 52.5C149 50.25 147.792 48.3333 146.25 46.75C144.708 45.125 142.896 43.8958 140.812 43.0625C138.771 42.1875 136.583 41.75 134.25 41.75C131.917 41.75 129.708 42.1875 127.625 43.0625C125.583 43.8958 123.792 45.125 122.25 46.75C120.75 48.3333 119.562 50.25 118.688 52.5C117.812 54.7083 117.375 57.1875 117.375 59.9375C117.375 62.5208 117.812 64.9167 118.688 67.125C119.562 69.3333 120.75 71.25 122.25 72.875C123.792 74.5 125.583 75.7917 127.625 76.75C129.708 77.6667 131.917 78.125 134.25 78.125C136.583 78.125 138.771 77.6875 140.812 76.8125C142.896 75.9375 144.708 74.7083 146.25 73.125C147.792 71.5417 149 69.625 149.875 67.375C150.792 65.125 151.25 62.6458 151.25 59.9375ZM263 94H246V51.5C246 50.3333 245.771 49.2292 245.312 48.1875C244.896 47.1458 244.292 46.2292 243.5 45.4375C242.708 44.6458 241.792 44.0417 240.75 43.625C239.708 43.1667 238.604 42.9375 237.438 42.9375C236.271 42.9375 235.167 43.1667 234.125 43.625C233.125 44.0417 232.229 44.6458 231.438 45.4375C230.688 46.2292 230.083 47.1458 229.625 48.1875C229.208 49.2292 229 50.3333 229 51.5V94H211.938V51.5C211.938 50.3333 211.708 49.2292 211.25 48.1875C210.833 47.1458 210.229 46.2292 209.438 45.4375C208.646 44.6458 207.729 44.0417 206.688 43.625C205.646 43.1667 204.542 42.9375 203.375 42.9375C202.208 42.9375 201.104 43.1667 200.062 43.625C199.062 44.0417 198.167 44.6458 197.375 45.4375C196.625 46.2292 196.021 47.1458 195.562 48.1875C195.146 49.2292 194.938 50.3333 194.938 51.5V94H177.875V27.0625H182L186.625 32.1875C189 30.1875 191.604 28.6458 194.438 27.5625C197.312 26.4375 200.292 25.875 203.375 25.875C206.5 25.875 209.542 26.4583 212.5 27.625C215.5 28.7917 218.125 30.8125 220.375 33.6875C221.417 32.2708 222.604 31.0625 223.938 30.0625C225.271 29.0625 226.667 28.25 228.125 27.625C229.625 27 231.167 26.5625 232.75 26.3125C234.333 26.0208 235.896 25.875 237.438 25.875C240.979 25.875 244.292 26.5417 247.375 27.875C250.5 29.2083 253.208 31.0417 255.5 33.375C257.833 35.6667 259.667 38.375 261 41.5C262.333 44.625 263 47.9583 263 51.5V94ZM340.188 59.9375C340.188 64.9375 339.292 69.6042 337.5 73.9375C335.708 78.2292 333.271 81.9583 330.188 85.125C327.104 88.25 323.479 90.7292 319.312 92.5625C315.188 94.3542 310.75 95.25 306 95.25C301.292 95.25 296.854 94.3542 292.688 92.5625C288.562 90.7292 284.938 88.25 281.812 85.125C278.729 81.9583 276.292 78.2292 274.5 73.9375C272.708 69.6042 271.812 64.9375 271.812 59.9375C271.812 54.8542 272.708 50.1458 274.5 45.8125C276.292 41.4792 278.729 37.75 281.812 34.625C284.938 31.4583 288.562 28.9792 292.688 27.1875C296.854 25.3958 301.292 24.5 306 24.5C310.75 24.5 315.188 25.3542 319.312 27.0625C323.479 28.7292 327.104 31.125 330.188 34.25C333.271 37.3333 335.708 41.0625 337.5 45.4375C339.292 49.7708 340.188 54.6042 340.188 59.9375ZM323 59.9375C323 57.1875 322.542 54.7083 321.625 52.5C320.75 50.25 319.542 48.3333 318 46.75C316.458 45.125 314.646 43.8958 312.562 43.0625C310.521 42.1875 308.333 41.75 306 41.75C303.667 41.75 301.458 42.1875 299.375 43.0625C297.333 43.8958 295.542 45.125 294 46.75C292.5 48.3333 291.312 50.25 290.438 52.5C289.562 54.7083 289.125 57.1875 289.125 59.9375C289.125 62.5208 289.562 64.9167 290.438 67.125C291.312 69.3333 292.5 71.25 294 72.875C295.542 74.5 297.333 75.7917 299.375 76.75C301.458 77.6667 303.667 78.125 306 78.125C308.333 78.125 310.521 77.6875 312.562 76.8125C314.646 75.9375 316.458 74.7083 318 73.125C319.542 71.5417 320.75 69.625 321.625 67.375C322.542 65.125 323 62.6458 323 59.9375ZM450.062 94H387.312V4.375H405.25V76.0625H450.062V94ZM520.688 94H516.562L509.938 84.8125C508.312 86.2708 506.583 87.6458 504.75 88.9375C502.958 90.1875 501.062 91.2917 499.062 92.25C497.062 93.1667 495 93.8958 492.875 94.4375C490.792 94.9792 488.667 95.25 486.5 95.25C481.792 95.25 477.354 94.4583 473.188 92.875C469.062 91.2917 465.438 89 462.312 86C459.229 82.9583 456.792 79.25 455 74.875C453.208 70.5 452.312 65.5208 452.312 59.9375C452.312 54.7292 453.208 49.9583 455 45.625C456.792 41.25 459.229 37.5 462.312 34.375C465.438 31.25 469.062 28.8333 473.188 27.125C477.354 25.375 481.792 24.5 486.5 24.5C488.667 24.5 490.812 24.7708 492.938 25.3125C495.062 25.8542 497.125 26.6042 499.125 27.5625C501.125 28.5208 503.021 29.6458 504.812 30.9375C506.646 32.2292 508.354 33.625 509.938 35.125L516.562 27.1875H520.688V94ZM503.5 59.9375C503.5 57.6042 503.042 55.3542 502.125 53.1875C501.25 50.9792 500.042 49.0417 498.5 47.375C496.958 45.6667 495.146 44.3125 493.062 43.3125C491.021 42.2708 488.833 41.75 486.5 41.75C484.167 41.75 481.958 42.1458 479.875 42.9375C477.833 43.7292 476.042 44.8958 474.5 46.4375C473 47.9792 471.812 49.8958 470.938 52.1875C470.062 54.4375 469.625 57.0208 469.625 59.9375C469.625 62.8542 470.062 65.4583 470.938 67.75C471.812 70 473 71.8958 474.5 73.4375C476.042 74.9792 477.833 76.1458 479.875 76.9375C481.958 77.7292 484.167 78.125 486.5 78.125C488.833 78.125 491.021 77.625 493.062 76.625C495.146 75.5833 496.958 74.2292 498.5 72.5625C500.042 70.8542 501.25 68.9167 502.125 66.75C503.042 64.5417 503.5 62.2708 503.5 59.9375ZM600.75 59.9375C600.75 65.1875 599.854 69.9792 598.062 74.3125C596.271 78.6458 593.833 82.375 590.75 85.5C587.667 88.5833 584.042 90.9792 579.875 92.6875C575.75 94.3958 571.312 95.25 566.562 95.25C561.854 95.25 557.417 94.375 553.25 92.625C549.125 90.875 545.5 88.4375 542.375 85.3125C539.292 82.1875 536.854 78.4792 535.062 74.1875C533.271 69.8542 532.375 65.1042 532.375 59.9375V0.4375H549.5V31.6875C550.417 30.5208 551.521 29.4792 552.812 28.5625C554.146 27.6458 555.562 26.8958 557.062 26.3125C558.604 25.7292 560.188 25.2917 561.812 25C563.438 24.6667 565.021 24.5 566.562 24.5C571.312 24.5 575.75 25.3958 579.875 27.1875C584.042 28.9375 587.667 31.3958 590.75 34.5625C593.833 37.7292 596.271 41.4792 598.062 45.8125C599.854 50.1042 600.75 54.8125 600.75 59.9375ZM583.562 59.9375C583.562 57.3542 583.104 54.9583 582.188 52.75C581.312 50.5 580.104 48.5625 578.562 46.9375C577.021 45.3125 575.208 44.0417 573.125 43.125C571.083 42.2083 568.896 41.75 566.562 41.75C564.229 41.75 562.021 42.2708 559.938 43.3125C557.896 44.3125 556.104 45.6667 554.562 47.375C553.021 49.0417 551.812 50.9792 550.938 53.1875C550.062 55.3542 549.625 57.6042 549.625 59.9375C549.625 62.5208 550.062 64.9167 550.938 67.125C551.812 69.3333 553.021 71.25 554.562 72.875C556.104 74.5 557.896 75.7917 559.938 76.75C562.021 77.6667 564.229 78.125 566.562 78.125C568.896 78.125 571.083 77.6667 573.125 76.75C575.208 75.7917 577.021 74.5 578.562 72.875C580.104 71.25 581.312 69.3333 582.188 67.125C583.104 64.9167 583.562 62.5208 583.562 59.9375ZM631.25 87.625C631.25 89.125 630.979 90.5417 630.438 91.875C629.896 93.1667 629.146 94.2917 628.188 95.25C627.229 96.2083 626.104 96.9583 624.812 97.5C623.521 98.0833 622.125 98.375 620.625 98.375C619.167 98.375 617.771 98.0833 616.438 97.5C615.146 96.9583 614 96.2083 613 95.25C612.042 94.2917 611.271 93.1667 610.688 91.875C610.146 90.5417 609.875 89.125 609.875 87.625C609.875 86.1667 610.146 84.7917 610.688 83.5C611.271 82.2083 612.042 81.0833 613 80.125C614 79.1667 615.146 78.4167 616.438 77.875C617.771 77.2917 619.167 77 620.625 77C622.125 77 623.521 77.2917 624.812 77.875C626.104 78.4167 627.229 79.1667 628.188 80.125C629.146 81.0833 629.896 82.2083 630.438 83.5C630.979 84.7917 631.25 86.1667 631.25 87.625Z" fill="black"/>
</svg>
