<svg width="249" height="267" viewBox="0 0 249 267" fill="none" xmlns="http://www.w3.org/2000/svg">
<path d="M151.131 154C159.798 170 169.831 214.1 140.631 262.5" stroke="#156A3F" stroke-width="8" stroke-linecap="round"/>
<path d="M241.299 195.722C225.874 183.162 228.131 187.095 221.017 186C208.017 184 192.111 194.378 184.124 205.809C181.411 209.692 179.188 213.5 177.624 216.598C172.423 225.229 169.22 234.202 168.269 237.609C188.407 247.451 211.825 240.582 221.017 235.918C238.728 231.543 242.713 207.298 241.299 195.722Z" fill="#156A3F"/>
<path d="M114.631 201.5C135.831 205.1 139.464 227.333 138.631 238C120.231 238 109.964 226.333 107.131 220.5C101.131 206.5 109.631 202 114.631 201.5Z" fill="#156A3F"/>
<path d="M9.59351 81.5C-18.4065 132 21.5409 150.914 44.5409 157.748C50.5409 183.748 65.0675 189 65.0675 189C96.0675 212 137.708 181.414 146.041 152.748C188.841 187.948 219.874 167.414 230.041 152.748C248.441 103.948 225.093 83.6667 215.093 71.5C230.041 1.5 170.374 9.91441 146.041 29.7478C102.041 -37.2523 29.8742 23.9144 37.0409 66.7477C19.5935 69 10.9796 79 9.59351 81.5Z" fill="#ED2FA1"/>
<path d="M73.5674 108.5C81.4007 107.333 98.6674 110 105.067 130" stroke="white" stroke-width="6" stroke-linecap="round"/>
<path d="M101.567 67C100.234 80 101.767 109.1 118.567 121.5" stroke="white" stroke-width="6" stroke-linecap="round"/>
<path d="M129.067 84.5C127.067 86.1667 125.467 96.9 135.067 126.5" stroke="white" stroke-width="6" stroke-linecap="round"/>
<path d="M92.8196 231.844C87.2313 237.323 90.4136 245.999 91.8497 250.019C92.6377 250.29 95.7388 250.088 101.84 247.113C107.941 244.137 108.18 234.842 106.592 230.241C103.314 225.939 95.6137 229.105 92.8196 231.844Z" fill="#156A3F"/>
<path d="M59.0935 258C66.6935 259.6 70.9268 256.333 72.0935 254.5C68.8935 250.5 64.7602 248.5 63.0935 248C58.2935 248 56.4268 252.333 56.0935 254.5C56.4935 256.1 58.2602 257.5 59.0935 258Z" fill="#156A3F"/>
<path d="M85.5935 257.5C82.2602 254.333 74.8935 244.4 72.0935 230" stroke="#156A3F" stroke-width="4" stroke-linecap="round"/>
<path d="M9.53853 221.387C10.622 235.786 31.3886 235.018 39.3341 231.754C47.5935 257 69.5935 244 70.755 228.298C72.9219 228.298 77.4725 229.714 82.1315 228.298C89.7158 225.995 93.5935 220 95.5935 211C99.5935 193 76.5336 181.07 66.9629 188.557C70.7551 180.494 70.755 171.855 70.755 171.855C65.3375 148.817 44.7516 159.184 39.3341 169.551C27.9577 156.304 10.622 169.551 9.53853 175.311C3.03761 187.405 20.1927 202.764 26.8741 201.804C7.37154 209.637 9.35795 216.203 9.53853 221.387Z" fill="#C63BDB"/>
<path d="M38.5935 206C42.0935 204.167 49.2935 203.4 52.0935 211" stroke="#F9F9F9" stroke-width="3.5" stroke-linecap="round"/>
<path d="M52.5105 187C51.5105 190.5 52.1105 199.7 56.5105 202.5C58.9105 204.5 59.0105 204.5 59.5105 204.5" stroke="#F9F9F9" stroke-width="3.5" stroke-linecap="round"/>
</svg>
